<?xml version="1.0" encoding="utf-8"?>
<!-- Generator: Adobe Illustrator 22.1.0, SVG Export Plug-In . SVG Version: 6.00 Build 0)  -->
<svg version="1.1" xmlns="http://www.w3.org/2000/svg" xmlns:xlink="http://www.w3.org/1999/xlink" x="0px" y="0px" width="800px"
	 height="600px" viewBox="0 0 800 600" style="enable-background:new 0 0 800 600;" xml:space="preserve">
<style type="text/css">
	.st0{fill:#FFFFFF;}
	.st1{fill:#E6E6E6;}
</style>
<g id="Layer_1">
	<g>
		<rect class="st0" width="800" height="600"/>
	</g>
</g>
<g id="Layer_2">
	<path class="st1" d="M0,116L116,0h28.3L0,144.3V116z M0,78.3L78.3,0H50L0,50V78.3z M0,538.3L538.3,0H510L0,510V538.3z M642,0
		L42,600h28.3l600-600H642z M708,0L108,600h28.3l600-600H708z M576,0L0,576v24h4.3l600-600H576z M0,408.3L408.3,0H380L0,380V408.3z
		 M0,472.3L472.3,0H444L0,444V472.3z M0,342.3L342.3,0H314L0,314V342.3z M0,276.3L276.3,0H248L0,248V276.3z M0,210.3L210.3,0H182
		L0,182V210.3z M796.3,600l3.7-3.7V568l-32,32H796.3z M400.3,600L800,200.3V172L372,600H400.3z M466.3,600L800,266.3V238L438,600
		H466.3z M774,0L174,600h28.3L800,2.3V0H774z M268.3,600L800,68.3V40L240,600H268.3z M334.3,600L800,134.3V106L306,600H334.3z
		 M730.3,600l69.7-69.7V502l-98,98H730.3z M664.3,600L800,464.3V436L636,600H664.3z M532.3,600L800,332.3V304L504,600H532.3z
		 M598.3,600L800,398.3V370L570,600H598.3z"/>
</g>
</svg>
